<?xml version="1.0" encoding="UTF-8"?><svg id="Layer_2" xmlns="http://www.w3.org/2000/svg" viewBox="0 0 814.64 181.11"><defs><style>.cls-1{fill:#f9f025;}.cls-2{fill:#fe25f0;}.cls-3{fill:#e69623;}.cls-4{fill:#32f9fc;}.cls-5{fill:#8c2fa4;}.cls-6{fill:#2d2b2e;}.cls-7{fill:#b8268b;}.cls-8{fill:#31a5b2;}</style></defs><g id="Layer_1-2"><rect class="cls-1" x="150.93" y="90.56" width="30.19" height="30.19"/><rect class="cls-1" x="150.93" y="60.37" width="30.19" height="30.19"/><rect class="cls-1" x="120.74" y="90.56" width="30.19" height="30.19"/><rect class="cls-1" x="90.56" y="120.74" width="30.19" height="30.19"/><rect class="cls-1" x="60.37" y="150.93" width="30.19" height="30.19"/><rect class="cls-1" x="90.56" y="150.93" width="30.19" height="30.19"/><rect class="cls-1" x="120.74" y="120.74" width="30.19" height="30.19"/><rect class="cls-4" y="60.37" width="30.19" height="30.19"/><rect class="cls-4" x="30.19" y="60.37" width="30.19" height="30.19"/><rect class="cls-4" y="90.56" width="30.19" height="30.19"/><rect class="cls-4" x="60.37" width="30.19" height="30.19"/><rect class="cls-4" x="90.56" width="30.19" height="30.19"/><rect class="cls-4" x="60.37" y="30.19" width="30.19" height="30.19"/><rect class="cls-4" x="30.19" y="30.19" width="30.19" height="30.19"/><rect class="cls-6" x="60.37" y="60.37" width="30.19" height="30.19"/><rect class="cls-6" x="90.56" y="60.37" width="30.19" height="30.19"/><rect class="cls-6" x="60.37" y="90.56" width="30.19" height="30.19"/><rect class="cls-6" x="90.56" y="90.56" width="30.19" height="30.19"/><rect class="cls-2" x="120.74" y="60.37" width="30.19" height="30.19"/><rect class="cls-2" x="30.19" y="90.56" width="30.19" height="30.19"/><rect class="cls-2" x="90.56" y="30.19" width="30.19" height="30.19"/><rect class="cls-2" x="60.37" y="120.74" width="30.19" height="30.19"/><rect class="cls-2" x="120.74" y="30.19" width="30.19" height="30.19"/><rect class="cls-2" x="30.19" y="120.74" width="30.19" height="30.19"/><path class="cls-5" d="M30.19,90.56h30.19v30.19h0c-16.66,0-30.19-13.53-30.19-30.19h0Z"/><path class="cls-8" d="M60.37,60.37h0v30.19h-30.19c0-16.66,13.53-30.19,30.19-30.19Z"/><path class="cls-8" d="M60.37,30.19h30.19v30.19h0c-16.66,0-30.19-13.53-30.19-30.19h0Z" transform="translate(120.74 -30.19) rotate(90)"/><path class="cls-5" d="M120.74,30.19h0v30.19h-30.19c0-16.66,13.53-30.19,30.19-30.19Z" transform="translate(150.93 -60.37) rotate(90)"/><path class="cls-7" d="M120.74,60.37h30.19v30.19h0c-16.66,0-30.19-13.53-30.19-30.19h0Z" transform="translate(271.67 150.93) rotate(180)"/><path class="cls-3" d="M150.93,90.56h0v30.19h-30.19c0-16.66,13.53-30.19,30.19-30.19Z" transform="translate(271.67 211.3) rotate(-180)"/><path class="cls-3" d="M90.56,120.74h30.19v30.19h0c-16.66,0-30.19-13.53-30.19-30.19h0Z" transform="translate(-30.19 241.48) rotate(-90)"/><path class="cls-7" d="M90.56,120.74h0v30.19h-30.19c0-16.66,13.53-30.19,30.19-30.19Z" transform="translate(-60.37 211.3) rotate(-90)"/><path d="M278.49,71.83c0,17.45-13.73,30.5-32.36,30.5s-32.36-12.96-32.36-30.5,13.73-30.16,32.36-30.16,32.36,12.79,32.36,30.16ZM231.81,71.92c0,8.98,6.78,15.67,14.57,15.67s14.06-6.69,14.06-15.67-6.27-15.5-14.06-15.5-14.57,6.52-14.57,15.5Z"/><path d="M303.57,55.74v11.86h26.43v13.56h-26.43v20.42h-17.62v-59.39h46.09v13.56h-28.47Z"/><path d="M356.86,55.74v11.86h26.43v13.56h-26.43v20.42h-17.62v-59.39h46.09v13.56h-28.47Z"/><path d="M441.75,48.28l-6.52,13.56c-6.1-3.47-14.74-6.61-19.74-6.61-2.97,0-4.91,1.02-4.91,3.22,0,8.73,31.01,3.56,31.01,24.99,0,12.62-11.18,18.64-24.48,18.64-10.08,0-21.1-3.56-28.55-9.4l6.61-13.39c6.1,5.17,16.01,9.07,22.11,9.07,3.73,0,6.1-1.27,6.1-3.98,0-8.98-31.01-3.3-31.01-24.23,0-11.44,9.74-18.72,24.57-18.72,9.07,0,18.38,2.71,24.82,6.86Z"/><path d="M466.49,55.74v9.32h28.04v13.56h-28.04v9.4h31.77v13.56h-49.39v-59.39h48.55v13.56h-30.92Z"/><path d="M538,56.24v45.33h-17.71v-45.33h-17.2v-14.06h52.19v14.06h-17.28Z"/><path class="cls-1" d="M588.33,42.27c15.08,0,23.72,7.46,23.72,20.59,0,13.81-8.64,21.77-23.72,21.77h-11.78v16.94h-13.39v-59.31h25.16ZM576.55,73.44h11.1c7.46,0,11.69-3.39,11.69-10.17s-4.24-9.91-11.69-9.91h-11.1v20.08Z"/><path class="cls-1" d="M621.46,101.57v-59.31h13.39v59.31h-13.39Z"/><path class="cls-1" d="M702.37,101.57h-16.01l-13.98-19.74-13.73,19.74h-15.67l21.27-30.33-19.83-28.98h15.59l12.37,18.13,12.45-18.13h15.84l-19.74,28.38,21.44,30.92Z"/><path class="cls-1" d="M724.14,53.36v12.88h28.64v11.1h-28.64v13.13h32.7v11.1h-46.09v-59.31h45.16v11.1h-31.77Z"/><path class="cls-1" d="M807,89.88v11.69h-38.8v-59.31h13.39v47.61h25.42Z"/><path d="M225.1,117.32c6.34,0,9.98,3.14,9.98,8.61s-3.64,9.01-9.98,9.01h-5.8v7.61h-4.25v-25.23h10.06ZM219.3,131.13h5.62c3.89,0,6.09-1.66,6.09-5.08s-2.2-4.9-6.09-4.9h-5.62v9.98Z"/><path d="M244.92,127.2c1.3-2.6,3.6-3.96,6.63-3.96v3.96c-3.86-.22-6.31,2.05-6.63,5.33v10.02h-4.15v-19.18h4.15v3.82Z"/><path d="M273.58,134.55h-14.49c.65,2.96,2.92,4.79,5.95,4.79,2.09,0,4-.79,5.41-2.23l2.2,2.34c-1.87,2.05-4.61,3.24-7.93,3.24-5.91,0-9.8-3.93-9.8-9.7s4-9.73,9.7-9.77c6.74,0,9.48,4.4,8.98,11.32ZM269.97,131.52c-.14-3.1-2.2-4.97-5.33-4.97s-5.15,1.91-5.62,4.97h10.96Z"/><path d="M295.42,126.37l-2.27,2.67c-1.33-1.37-3.17-2.2-5.48-2.16-3.32,0-5.69,2.49-5.69,6.13s2.38,6.13,5.69,6.13c2.41,0,4.36-.79,5.66-2.31l2.31,2.31c-1.73,2.27-4.51,3.57-8.15,3.57-5.69,0-9.66-3.93-9.66-9.7s3.96-9.77,9.66-9.77c3.46,0,6.16,1.12,7.93,3.14Z"/><path d="M306.16,117.9c0,1.44-1.05,2.49-2.41,2.49s-2.41-1.05-2.41-2.49,1.05-2.52,2.41-2.52,2.41,1.05,2.41,2.52ZM301.69,142.55v-19.18h4.11v19.18h-4.11Z"/><path d="M326.09,125.14l-1.51,3.06c-1.69-1.05-3.82-1.69-5.51-1.69s-2.81.54-2.81,1.91c0,3.53,10.2,1.62,10.16,8.58,0,3.93-3.5,5.69-7.35,5.69-2.81,0-5.8-.94-7.71-2.67l1.48-2.96c1.66,1.48,4.33,2.38,6.42,2.38,1.77,0,3.14-.61,3.14-2.05,0-3.93-10.09-1.73-10.06-8.65,0-3.89,3.39-5.55,7.06-5.55,2.41,0,4.97.72,6.7,1.95Z"/><path d="M336.79,117.9c0,1.44-1.05,2.49-2.42,2.49s-2.41-1.05-2.41-2.49,1.05-2.52,2.41-2.52,2.42,1.05,2.42,2.52ZM332.32,142.55v-19.18h4.11v19.18h-4.11Z"/><path d="M362.49,132.96c0,5.77-4.07,9.73-9.98,9.73s-10.02-3.96-10.02-9.73,4.07-9.73,10.02-9.73,9.98,3.93,9.98,9.73ZM346.63,133c0,3.71,2.41,6.24,5.88,6.24s5.84-2.52,5.84-6.24-2.41-6.2-5.84-6.2-5.88,2.52-5.88,6.2Z"/><path d="M386.89,130.62v11.93h-4.14v-10.78c0-2.88-1.73-4.65-4.61-4.65-3.17.04-5.15,2.23-5.44,5.23v10.2h-4.14v-19.18h4.14v3.68c1.37-2.67,3.82-3.82,7.06-3.82,4.47,0,7.14,2.81,7.14,7.39Z"/><path d="M430.11,129.94c0,7.21-5.84,12.8-13.37,12.8s-13.37-5.59-13.37-12.8,5.84-12.72,13.37-12.72,13.37,5.51,13.37,12.72ZM407.69,129.94c0,5.01,4.15,8.97,9.08,8.97s8.98-3.96,8.98-8.97-4.04-8.9-8.98-8.9-9.08,3.89-9.08,8.9Z"/><path d="M441.03,121.83v2.27h5.01v3.1h-5.01v15.35h-4.11v-15.35h-2.52v-3.1h2.52v-1.87c0-4.47,3.28-6.6,6.6-6.6,1.55,0,3.1.43,4.33,1.33l-1.59,3.17c-.79-.58-1.77-.9-2.63-.9-1.41,0-2.6.79-2.6,2.59Z"/><path d="M455.34,121.83v2.27h5.01v3.1h-5.01v15.35h-4.11v-15.35h-2.52v-3.1h2.52v-1.87c0-4.47,3.28-6.6,6.6-6.6,1.55,0,3.1.43,4.33,1.33l-1.59,3.17c-.79-.58-1.77-.9-2.63-.9-1.41,0-2.6.79-2.6,2.59Z"/><path d="M476.96,125.14l-1.51,3.06c-1.69-1.05-3.82-1.69-5.51-1.69s-2.81.54-2.81,1.91c0,3.53,10.2,1.62,10.16,8.58,0,3.93-3.5,5.69-7.35,5.69-2.81,0-5.8-.94-7.71-2.67l1.48-2.96c1.66,1.48,4.33,2.38,6.42,2.38,1.77,0,3.14-.61,3.14-2.05,0-3.93-10.09-1.73-10.06-8.65,0-3.89,3.39-5.55,7.06-5.55,2.41,0,4.97.72,6.7,1.95Z"/><path d="M500.07,134.55h-14.49c.65,2.96,2.92,4.79,5.95,4.79,2.09,0,4-.79,5.41-2.23l2.2,2.34c-1.87,2.05-4.61,3.24-7.93,3.24-5.91,0-9.8-3.93-9.8-9.7s4-9.73,9.7-9.77c6.74,0,9.48,4.4,8.97,11.32ZM496.46,131.52c-.14-3.1-2.2-4.97-5.33-4.97s-5.15,1.91-5.62,4.97h10.96Z"/><path d="M516.97,141.33c-1.51.9-3.1,1.41-4.72,1.41-2.88,0-5.37-1.66-5.37-5.59v-9.95h-2.7v-3.1h2.7v-5.26h4.11v5.26h5.66v3.1h-5.66v9.19c0,1.98.76,2.6,2.05,2.6.87,0,1.77-.29,2.88-.83l1.05,3.17Z"/><path d="M525.66,140.46c0,1.41-.97,2.41-2.27,2.41s-2.27-1.01-2.27-2.41.97-2.34,2.27-2.34,2.27.97,2.27,2.34Z"/><path d="M550.24,142.55l-10.06-25.23h4.58l7.79,20.51,7.86-20.51h4.43l-10.2,25.23h-4.4Z"/><path d="M573.99,117.9c0,1.44-1.04,2.49-2.41,2.49s-2.41-1.05-2.41-2.49,1.05-2.52,2.41-2.52,2.41,1.05,2.41,2.52ZM569.52,142.55v-19.18h4.11v19.18h-4.11Z"/><path d="M601.67,133.04c0,5.73-3.6,9.66-9.08,9.66-3.06,0-5.37-1.23-6.78-3.46v3.32h-4.14v-26.74h4.14v10.89c1.41-2.23,3.71-3.46,6.7-3.46,5.44,0,9.16,3.96,9.16,9.8ZM597.49,132.89c0-3.57-2.41-6.2-5.84-6.2s-5.84,2.59-5.84,6.2,2.41,6.27,5.84,6.27,5.84-2.6,5.84-6.27Z"/><path d="M611.87,127.2c1.3-2.6,3.6-3.96,6.63-3.96v3.96c-3.86-.22-6.31,2.05-6.63,5.33v10.02h-4.15v-19.18h4.15v3.82Z"/><path d="M634.4,140.21c-1.37,1.69-3.57,2.52-6.34,2.52-4.14,0-6.74-2.56-6.74-5.95s2.63-5.73,7.24-5.77h5.8v-.58c0-2.42-1.55-3.86-4.58-3.86-1.84,0-3.75.65-5.66,1.95l-1.69-2.88c2.67-1.59,4.61-2.41,8.25-2.41,4.94,0,7.71,2.52,7.75,6.74l.04,12.58h-4.07v-2.34ZM634.36,135.81v-1.77h-5.19c-2.7,0-3.96.72-3.96,2.56,0,1.73,1.41,2.85,3.71,2.85,2.96,0,5.23-1.55,5.44-3.64Z"/><path d="M664.1,130.62v11.93h-4.15v-10.78c0-2.88-1.73-4.65-4.61-4.65-3.17.04-5.15,2.23-5.44,5.23v10.2h-4.15v-19.18h4.15v3.68c1.37-2.67,3.82-3.82,7.06-3.82,4.47,0,7.14,2.81,7.14,7.39Z"/><path d="M682.23,141.33c-1.51.9-3.1,1.41-4.72,1.41-2.88,0-5.37-1.66-5.37-5.59v-9.95h-2.7v-3.1h2.7v-5.26h4.11v5.26h5.66v3.1h-5.66v9.19c0,1.98.76,2.6,2.05,2.6.86,0,1.77-.29,2.88-.83l1.04,3.17Z"/><path d="M709.11,117.32c6.34,0,9.98,3.14,9.98,8.61s-3.64,9.01-9.98,9.01h-5.8v7.61h-4.25v-25.23h10.06ZM703.31,131.13h5.62c3.89,0,6.09-1.66,6.09-5.08s-2.2-4.9-6.09-4.9h-5.62v9.98Z"/><path d="M729.26,117.9c0,1.44-1.04,2.49-2.41,2.49s-2.41-1.05-2.41-2.49,1.05-2.52,2.41-2.52,2.41,1.05,2.41,2.52ZM724.79,142.55v-19.18h4.11v19.18h-4.11Z"/><path d="M748.07,123.38h4.54l-6.16,9.34,6.6,9.84h-4.76l-4.58-7.03-4.9,7.03h-4.61l6.78-9.84-6.31-9.34h4.76l4.29,6.56,4.36-6.56Z"/><path d="M774.42,134.55h-14.49c.65,2.96,2.92,4.79,5.95,4.79,2.09,0,4-.79,5.41-2.23l2.2,2.34c-1.87,2.05-4.61,3.24-7.93,3.24-5.91,0-9.8-3.93-9.8-9.7s4-9.73,9.7-9.77c6.74,0,9.48,4.4,8.97,11.32ZM770.82,131.52c-.14-3.1-2.2-4.97-5.33-4.97s-5.15,1.91-5.62,4.97h10.96Z"/><path d="M780.66,142.55v-26.74h4.14v26.74h-4.14Z"/><path d="M805.27,125.14l-1.51,3.06c-1.69-1.05-3.82-1.69-5.51-1.69s-2.81.54-2.81,1.91c0,3.53,10.2,1.62,10.16,8.58,0,3.93-3.5,5.69-7.35,5.69-2.81,0-5.8-.94-7.71-2.67l1.48-2.96c1.66,1.48,4.33,2.38,6.42,2.38,1.77,0,3.14-.61,3.14-2.05,0-3.93-10.09-1.73-10.06-8.65,0-3.89,3.39-5.55,7.06-5.55,2.41,0,4.97.72,6.7,1.95Z"/><path d="M814.64,140.46c0,1.41-.97,2.41-2.27,2.41s-2.27-1.01-2.27-2.41.97-2.34,2.27-2.34,2.27.97,2.27,2.34Z"/></g></svg>